<svg width="64" height="64" viewBox="0 0 64 64" fill="none" xmlns="http://www.w3.org/2000/svg">
<rect width="64" height="64" rx="0" fill="url(#paint0_linear_8945_460)"/>
<path fill-rule="evenodd" clip-rule="evenodd" d="M11.8206 32.1501H19.9477C20.1452 32.1501 20.314 32.2183 20.4541 32.3584L22.2749 34.1791C22.555 34.4593 23.0111 34.4593 23.2912 34.1791L30.3876 27.0863L37.8109 19.6631C37.9509 19.523 38.1197 19.4512 38.3173 19.4512H46.4444C46.7389 19.4512 46.9938 19.62 47.1088 19.8929C47.2201 20.1694 47.1626 20.4675 46.9508 20.6758L35.4801 32.1501L27.863 39.7672L23.2912 44.339C23.0111 44.6191 22.555 44.6191 22.2749 44.339L11.3106 33.3747C11.1023 33.1664 11.0413 32.8647 11.1562 32.5918C11.2711 32.3188 11.5225 32.1501 11.8206 32.1501Z" fill="white"/>
<path fill-rule="evenodd" clip-rule="evenodd" d="M34.1082 36.7185L38.1699 32.6568C38.4501 32.3766 38.9061 32.3766 39.1863 32.6568L40.709 34.1795C40.9891 34.4596 41.4452 34.4596 41.7253 34.1795L43.5461 32.3587C43.6862 32.2186 43.855 32.1504 44.0525 32.1504H52.1796C52.4777 32.1504 52.7291 32.3192 52.844 32.5921C52.9589 32.8651 52.8979 33.1667 52.6896 33.375L46.2971 39.7676L41.7253 44.3393C41.4452 44.6194 40.9891 44.6194 40.709 44.3393L34.1082 37.7349C33.828 37.4548 33.828 36.9987 34.1082 36.7185Z" fill="white"/>
<defs>
<linearGradient id="paint0_linear_8945_460" x1="23.6853" y1="24.96" x2="-8.69865" y2="61.6119" gradientUnits="userSpaceOnUse">
<stop stop-color="#7340E5"/>
<stop offset="1" stop-color="#40237F"/>
</linearGradient>
</defs>
</svg>
