<svg width="130" height="37" viewBox="0 0 130 37" fill="none" xmlns="http://www.w3.org/2000/svg">
<path fill-rule="evenodd" clip-rule="evenodd" d="M0.721722 18.1891H8.84885C9.04637 18.1891 9.21516 18.2574 9.35522 18.3974L11.176 20.2182C11.4561 20.4983 11.9122 20.4983 12.1924 20.2182L19.2888 13.1254L26.712 5.70212C26.8521 5.56206 27.0209 5.49023 27.2184 5.49023H35.3455C35.64 5.49023 35.895 5.65903 36.0099 5.93197C36.1212 6.2085 36.0638 6.50658 35.8519 6.71487L24.3812 18.1891L16.7641 25.8063L12.1924 30.378C11.9122 30.6582 11.4561 30.6582 11.176 30.378L0.211757 19.4138C0.00346117 19.2055 -0.057591 18.9038 0.0573307 18.6308C0.172253 18.3579 0.423644 18.1891 0.721722 18.1891Z" fill="#7340E5"/>
<path fill-rule="evenodd" clip-rule="evenodd" d="M0.721722 18.1891H8.84885C9.04637 18.1891 9.21516 18.2574 9.35522 18.3974L11.176 20.2182C11.4561 20.4983 11.9122 20.4983 12.1924 20.2182L19.2888 13.1254L26.712 5.70212C26.8521 5.56206 27.0209 5.49023 27.2184 5.49023H35.3455C35.64 5.49023 35.895 5.65903 36.0099 5.93197C36.1212 6.2085 36.0638 6.50658 35.8519 6.71487L24.3812 18.1891L16.7641 25.8063L12.1924 30.378C11.9122 30.6582 11.4561 30.6582 11.176 30.378L0.211757 19.4138C0.00346117 19.2055 -0.057591 18.9038 0.0573307 18.6308C0.172253 18.3579 0.423644 18.1891 0.721722 18.1891Z" fill="white"/>
<path fill-rule="evenodd" clip-rule="evenodd" d="M23.0094 22.7576L27.0712 18.6958C27.3513 18.4157 27.8074 18.4157 28.0875 18.6958L29.6102 20.2185C29.8903 20.4987 30.3464 20.4987 30.6265 20.2185L32.4473 18.3977C32.5874 18.2577 32.7562 18.1895 32.9537 18.1895H41.0808C41.3789 18.1895 41.6303 18.3582 41.7452 18.6312C41.8601 18.9041 41.7991 19.2058 41.5908 19.4141L35.1983 25.8066L30.6265 30.3784C30.3464 30.6585 29.8903 30.6585 29.6102 30.3784L23.0094 23.7739C22.7293 23.4938 22.7293 23.0377 23.0094 22.7576Z" fill="white"/>
<path d="M55.1065 27.0391L50.0425 9.75906H53.4745L56.7145 21.6391L59.9545 9.78306L63.3865 9.75906L66.6265 21.6391L69.8665 9.75906H73.2985L68.2345 27.0391H65.0185L61.6705 15.3751L58.3225 27.0391H55.1065ZM79.819 27.3991C78.491 27.3991 77.319 27.1151 76.303 26.5471C75.295 25.9711 74.503 25.1831 73.927 24.1831C73.359 23.1751 73.075 22.0231 73.075 20.7271C73.075 19.3111 73.355 18.0791 73.915 17.0311C74.475 15.9831 75.247 15.1711 76.231 14.5951C77.215 14.0111 78.347 13.7191 79.627 13.7191C80.987 13.7191 82.143 14.0391 83.095 14.6791C84.047 15.3191 84.751 16.2191 85.207 17.3791C85.663 18.5391 85.823 19.9031 85.687 21.4711H82.459V20.2711C82.459 18.9511 82.247 18.0031 81.823 17.4271C81.407 16.8431 80.723 16.5511 79.771 16.5511C78.659 16.5511 77.839 16.8911 77.311 17.5711C76.791 18.2431 76.531 19.2391 76.531 20.5591C76.531 21.7671 76.791 22.7031 77.311 23.3671C77.839 24.0231 78.611 24.3511 79.627 24.3511C80.267 24.3511 80.815 24.2111 81.271 23.9311C81.727 23.6511 82.075 23.2471 82.315 22.7191L85.579 23.6551C85.091 24.8391 84.319 25.7591 83.263 26.4151C82.215 27.0711 81.067 27.3991 79.819 27.3991ZM75.523 21.4711V19.0471H84.115V21.4711H75.523ZM88.3965 27.0391V14.0791H91.2765V17.2471L90.9645 16.8391C91.1325 16.3911 91.3565 15.9831 91.6365 15.6151C91.9165 15.2471 92.2605 14.9431 92.6685 14.7031C92.9805 14.5111 93.3205 14.3631 93.6885 14.2591C94.0565 14.1471 94.4365 14.0791 94.8285 14.0551C95.2205 14.0231 95.6125 14.0311 96.0045 14.0791V17.1271C95.6445 17.0151 95.2245 16.9791 94.7445 17.0191C94.2725 17.0511 93.8445 17.1591 93.4605 17.3431C93.0765 17.5191 92.7525 17.7551 92.4885 18.0511C92.2245 18.3391 92.0245 18.6831 91.8885 19.0831C91.7525 19.4751 91.6845 19.9191 91.6845 20.4151V27.0391H88.3965ZM98.2632 27.0391L98.2872 9.75906H101.599V20.3191L105.991 14.0791H110.023L105.343 20.5591L110.335 27.0391H106.087L101.599 20.7991V27.0391H98.2632Z" fill="white"/>
</svg>
